<?xml version="1.0" encoding="UTF-8"?>
<svg xmlns="http://www.w3.org/2000/svg" xmlns:xlink="http://www.w3.org/1999/xlink" width="854" height="480" viewBox="0 0 854 480">
<defs>
<g>
<g id="glyph-0-0">
<path d="M 4.410156 -1.722656 C 4.410156 -1.195312 4.238281 -0.757812 3.886719 -0.410156 C 3.539062 -0.0625 3.097656 0.113281 2.558594 0.113281 C 2.351562 0.113281 2.175781 0.0976562 2.027344 0.0703125 C 1.875 0.0390625 1.75 0.00390625 1.648438 -0.0390625 C 1.539062 -0.0820312 1.453125 -0.128906 1.386719 -0.171875 C 1.324219 -0.214844 1.273438 -0.25 1.234375 -0.277344 L 0.730469 0.179688 L 0.523438 0.0976562 C 0.535156 -0.0742188 0.542969 -0.257812 0.550781 -0.460938 C 0.558594 -0.660156 0.5625 -0.933594 0.5625 -1.273438 L 0.5625 -4.574219 C 0.5625 -4.664062 0.546875 -4.746094 0.507812 -4.824219 C 0.472656 -4.898438 0.425781 -4.957031 0.363281 -4.996094 C 0.320312 -5.027344 0.253906 -5.050781 0.167969 -5.070312 C 0.0820312 -5.09375 0.00390625 -5.105469 -0.0703125 -5.109375 L -0.0703125 -5.367188 L 1.675781 -5.460938 L 1.726562 -5.402344 L 1.726562 -3.109375 L 1.75 -3.109375 C 1.921875 -3.277344 2.097656 -3.398438 2.277344 -3.476562 C 2.457031 -3.554688 2.640625 -3.59375 2.820312 -3.59375 C 3.3125 -3.59375 3.703125 -3.425781 3.984375 -3.089844 C 4.269531 -2.753906 4.410156 -2.296875 4.410156 -1.722656 M 3.144531 -1.683594 C 3.144531 -1.859375 3.132812 -2.03125 3.105469 -2.199219 C 3.078125 -2.363281 3.035156 -2.511719 2.96875 -2.636719 C 2.90625 -2.765625 2.824219 -2.867188 2.71875 -2.941406 C 2.617188 -3.019531 2.488281 -3.058594 2.335938 -3.058594 C 2.195312 -3.058594 2.074219 -3.035156 1.980469 -2.988281 C 1.886719 -2.941406 1.804688 -2.871094 1.726562 -2.777344 L 1.726562 -0.726562 C 1.742188 -0.679688 1.769531 -0.617188 1.808594 -0.542969 C 1.847656 -0.464844 1.886719 -0.40625 1.925781 -0.363281 C 1.980469 -0.300781 2.042969 -0.253906 2.105469 -0.222656 C 2.167969 -0.191406 2.257812 -0.175781 2.371094 -0.175781 C 2.609375 -0.175781 2.800781 -0.308594 2.9375 -0.570312 C 3.078125 -0.832031 3.144531 -1.203125 3.144531 -1.683594 Z "/>
</g>
</g>
</defs>
<g fill="rgb(51.372549%, 75.686275%, 40.392157%)" fill-opacity="1">
<use xlink:href="#glyph-0-0" x="30" y="26.623047"/>
</g>
</svg>
