<?xml version="1.0" encoding="UTF-8"?>
<svg xmlns="http://www.w3.org/2000/svg" xmlns:xlink="http://www.w3.org/1999/xlink" width="854" height="480" viewBox="0 0 854 480">
<defs>
<g>
<g id="glyph-0-0">
<path d="M 1.574219 0.078125 C 1.148438 0.078125 0.816406 -0.0625 0.574219 -0.347656 C 0.335938 -0.628906 0.214844 -1.007812 0.214844 -1.484375 C 0.214844 -1.691406 0.246094 -1.882812 0.3125 -2.0625 C 0.375 -2.242188 0.46875 -2.40625 0.59375 -2.554688 C 0.710938 -2.695312 0.859375 -2.808594 1.035156 -2.894531 C 1.210938 -2.980469 1.40625 -3.027344 1.613281 -3.027344 C 1.902344 -3.027344 2.136719 -2.957031 2.316406 -2.816406 C 2.5 -2.679688 2.589844 -2.492188 2.589844 -2.253906 C 2.589844 -2.152344 2.566406 -2.066406 2.519531 -1.988281 C 2.46875 -1.910156 2.390625 -1.875 2.28125 -1.875 C 2.164062 -1.875 2.074219 -1.902344 2.007812 -1.964844 C 1.945312 -2.023438 1.914062 -2.089844 1.914062 -2.164062 C 1.914062 -2.25 1.925781 -2.34375 1.949219 -2.4375 C 1.972656 -2.53125 1.984375 -2.601562 1.988281 -2.644531 C 1.953125 -2.707031 1.902344 -2.746094 1.832031 -2.765625 C 1.761719 -2.789062 1.683594 -2.796875 1.601562 -2.796875 C 1.507812 -2.796875 1.417969 -2.777344 1.332031 -2.738281 C 1.246094 -2.695312 1.160156 -2.621094 1.078125 -2.511719 C 1.007812 -2.414062 0.945312 -2.277344 0.902344 -2.109375 C 0.855469 -1.941406 0.832031 -1.738281 0.832031 -1.503906 C 0.832031 -1.132812 0.914062 -0.832031 1.078125 -0.597656 C 1.242188 -0.363281 1.457031 -0.246094 1.722656 -0.246094 C 1.914062 -0.246094 2.078125 -0.292969 2.207031 -0.386719 C 2.335938 -0.484375 2.457031 -0.625 2.570312 -0.8125 L 2.761719 -0.6875 C 2.628906 -0.453125 2.457031 -0.265625 2.242188 -0.128906 C 2.027344 0.0078125 1.804688 0.078125 1.574219 0.078125 Z "/>
</g>
<g id="glyph-0-1">
<path d="M 2.683594 -1.460938 L 0.4375 -1.460938 L 0.4375 -1.792969 C 0.515625 -1.921875 0.632812 -2.050781 0.792969 -2.175781 C 0.953125 -2.300781 1.144531 -2.433594 1.371094 -2.574219 C 1.4375 -2.617188 1.515625 -2.675781 1.601562 -2.75 C 1.683594 -2.820312 1.75 -2.890625 1.796875 -2.949219 C 1.855469 -3.03125 1.902344 -3.113281 1.933594 -3.199219 C 1.960938 -3.285156 1.976562 -3.394531 1.976562 -3.527344 C 1.976562 -3.71875 1.929688 -3.863281 1.832031 -3.960938 C 1.734375 -4.0625 1.605469 -4.113281 1.445312 -4.113281 C 1.332031 -4.113281 1.238281 -4.09375 1.15625 -4.054688 C 1.074219 -4.015625 1.015625 -3.96875 0.980469 -3.917969 C 0.992188 -3.871094 1.007812 -3.816406 1.023438 -3.753906 C 1.035156 -3.695312 1.042969 -3.632812 1.042969 -3.566406 C 1.042969 -3.503906 1.015625 -3.449219 0.960938 -3.40625 C 0.90625 -3.359375 0.828125 -3.335938 0.722656 -3.335938 C 0.625 -3.335938 0.558594 -3.367188 0.519531 -3.429688 C 0.476562 -3.492188 0.457031 -3.5625 0.457031 -3.640625 C 0.457031 -3.820312 0.558594 -3.980469 0.769531 -4.125 C 0.976562 -4.265625 1.21875 -4.335938 1.492188 -4.335938 C 1.804688 -4.335938 2.058594 -4.261719 2.253906 -4.109375 C 2.453125 -3.960938 2.550781 -3.757812 2.550781 -3.507812 C 2.550781 -3.355469 2.527344 -3.226562 2.484375 -3.117188 C 2.4375 -3.007812 2.378906 -2.914062 2.304688 -2.835938 C 2.230469 -2.753906 2.140625 -2.683594 2.046875 -2.621094 C 1.949219 -2.5625 1.847656 -2.507812 1.746094 -2.457031 C 1.617188 -2.398438 1.464844 -2.3125 1.28125 -2.210938 C 1.097656 -2.109375 0.949219 -2 0.832031 -1.890625 L 2.683594 -1.890625 Z "/>
</g>
</g>
</defs>
<g fill="rgb(98.823529%, 38.431373%, 33.333333%)" fill-opacity="1">
<use xlink:href="#glyph-0-0" x="30" y="25.603516"/>
<use xlink:href="#glyph-0-1" x="33" y="25.603516"/>
</g>
</svg>
